# Blender 4.4.3
# www.blender.org
mtllib book3.mtl
o book
v -0.181446 0.195817 0.186931
v -0.175957 0.209234 0.176083
v -0.187037 0.134451 0.077978
v -0.192526 0.121034 0.088826
v -0.154878 0.139121 0.070787
v -0.148464 0.122450 0.082770
v -0.137384 0.197233 0.180875
v -0.143797 0.213904 0.168892
v -0.119198 0.211012 0.168318
v -0.130278 0.136230 0.070212
v -0.126433 0.123159 0.079742
v -0.115353 0.197941 0.177847
v -0.163770 0.213379 0.171547
v -0.174850 0.138596 0.073442
v -0.170495 0.121742 0.085798
v -0.159415 0.196525 0.183903
v -0.104871 0.127346 0.074114
v -0.105218 0.128306 0.073422
v -0.104402 0.123867 0.076713
v -0.104622 0.123860 0.076744
v -0.093322 0.198650 0.174819
v -0.093542 0.198643 0.174849
v -0.093791 0.202129 0.172220
v -0.094138 0.203089 0.171527
v -0.093194 0.196059 0.176779
v -0.104274 0.121277 0.078673
v -0.126085 0.120576 0.081671
v -0.115005 0.195358 0.179777
v -0.148116 0.119867 0.084699
v -0.137035 0.194650 0.182805
v -0.170146 0.119159 0.087727
v -0.159066 0.193942 0.185833
v -0.192177 0.118451 0.090756
v -0.181097 0.193233 0.188861
v -0.104054 0.121284 0.078643
v -0.092974 0.196067 0.176748
v -0.104723 0.123208 0.075889
v -0.126914 0.122494 0.078939
v -0.126566 0.119911 0.080868
v -0.104374 0.120624 0.077818
v -0.093449 0.199295 0.175705
v -0.115640 0.198581 0.178755
v -0.093101 0.196712 0.177635
v -0.115292 0.195998 0.180685
v -0.149329 0.121773 0.082020
v -0.171744 0.121053 0.085101
v -0.171396 0.118470 0.087030
v -0.148981 0.119190 0.083949
v -0.138056 0.197861 0.181836
v -0.160471 0.197140 0.184917
v -0.137707 0.195278 0.183766
v -0.160123 0.194557 0.186847
v -0.194160 0.120332 0.088181
v -0.193811 0.117749 0.090111
v -0.182886 0.196419 0.187998
v -0.182538 0.193836 0.189928
v -0.104499 0.123215 0.075858
v -0.104150 0.120632 0.077788
v -0.093225 0.199302 0.175674
v -0.092877 0.196719 0.177604
v -0.176115 0.208949 0.176318
v -0.163663 0.213002 0.171823
v -0.143635 0.213532 0.169157
v -0.119105 0.210737 0.168517
v -0.094122 0.202969 0.171616
v -0.093778 0.202035 0.172290
v -0.104858 0.127253 0.074184
v -0.105202 0.128187 0.073511
v -0.130185 0.135954 0.070412
v -0.154715 0.138749 0.071052
v -0.174743 0.138219 0.073718
v -0.187195 0.134167 0.078213
v -0.104411 0.123933 0.076664
v -0.104634 0.123945 0.076681
v -0.126499 0.123354 0.079600
v -0.148579 0.122714 0.082582
v -0.170570 0.122009 0.085603
v -0.192414 0.121235 0.088660
v -0.181334 0.196018 0.186765
v -0.159490 0.196792 0.183708
v -0.137498 0.197496 0.180687
v -0.115419 0.198136 0.177706
v -0.093553 0.198727 0.174786
v -0.093331 0.198716 0.174769
v -0.093299 0.198802 0.175018
v -0.093520 0.198795 0.175049
v -0.115420 0.198091 0.178059
v -0.137541 0.197380 0.181099
v -0.159661 0.196668 0.184140
v -0.181782 0.195957 0.187180
v -0.192907 0.120870 0.088675
v -0.170786 0.121581 0.085635
v -0.148666 0.122293 0.082595
v -0.126545 0.123004 0.079554
v -0.104646 0.123708 0.076544
v -0.104424 0.123715 0.076514
v -0.176127 0.208866 0.176209
v -0.181346 0.195935 0.186656
v -0.181458 0.195733 0.186822
v -0.181794 0.195874 0.187070
v -0.182899 0.196335 0.187887
v -0.182551 0.193751 0.189817
v -0.181110 0.193150 0.188751
v -0.159079 0.193858 0.185723
v -0.137048 0.194567 0.182695
v -0.115017 0.195275 0.179667
v -0.093206 0.195976 0.176669
v -0.092986 0.195983 0.176639
v -0.093803 0.202045 0.172110
v -0.094151 0.203006 0.171418
v -0.119211 0.210929 0.168208
v -0.143810 0.213820 0.168782
v -0.163783 0.213296 0.171438
v -0.175969 0.209151 0.175974
v -0.187179 0.134271 0.078350
v -0.192399 0.121340 0.088797
v -0.192510 0.121138 0.088963
v -0.192891 0.120975 0.088813
v -0.194144 0.120438 0.088321
v -0.193796 0.117855 0.090250
v -0.192162 0.118555 0.090892
v -0.170131 0.119263 0.087864
v -0.148100 0.119972 0.084836
v -0.126069 0.120680 0.081808
v -0.104258 0.121381 0.078810
v -0.104038 0.121388 0.078780
v -0.104855 0.127450 0.074251
v -0.105203 0.128411 0.073559
v -0.130263 0.136334 0.070349
v -0.154862 0.139225 0.070923
v -0.174835 0.138701 0.073579
v -0.187021 0.134556 0.078115
v -0.186901 0.134497 0.077928
v -0.187056 0.134212 0.078163
v -0.192171 0.121244 0.088626
v -0.192281 0.121042 0.088792
v -0.192661 0.120878 0.088642
v -0.193910 0.120340 0.088147
v -0.193562 0.117757 0.090077
v -0.191933 0.118459 0.090722
v -0.191917 0.118563 0.090859
v -0.180865 0.193158 0.188718
v -0.180852 0.193241 0.188827
v -0.182289 0.193844 0.189894
v -0.182637 0.196427 0.187964
v -0.181536 0.195965 0.187146
v -0.181201 0.195824 0.186897
v -0.181091 0.196027 0.186731
v -0.175976 0.208994 0.176268
v -0.175821 0.209280 0.176033
v -0.175834 0.209197 0.175924
v -0.186886 0.134602 0.078065
v -0.005198 0.201483 0.162706
v -0.014242 0.214433 0.153856
v -0.025322 0.139650 0.055751
v -0.016278 0.126700 0.064601
v -0.058458 0.142221 0.057534
v -0.060340 0.125284 0.070657
v -0.049260 0.200066 0.168763
v -0.047378 0.217004 0.155639
v -0.070988 0.212562 0.161691
v -0.082068 0.137780 0.063586
v -0.082371 0.124575 0.073685
v -0.071291 0.199358 0.171791
v -0.027436 0.217762 0.152809
v -0.038516 0.142979 0.054704
v -0.038309 0.125992 0.067629
v -0.027229 0.200775 0.165734
v -0.104784 0.128320 0.073362
v -0.104182 0.123874 0.076683
v -0.093102 0.198657 0.174788
v -0.093704 0.203103 0.171467
v -0.092753 0.196074 0.176718
v -0.103833 0.121291 0.078613
v -0.082023 0.121992 0.075615
v -0.070943 0.196775 0.173720
v -0.059992 0.122700 0.072587
v -0.048912 0.197483 0.170692
v -0.037961 0.123409 0.069559
v -0.026881 0.198191 0.167664
v -0.015930 0.124117 0.066531
v -0.004850 0.198900 0.164636
v -0.104274 0.123222 0.075827
v -0.082083 0.123935 0.072777
v -0.081735 0.121352 0.074707
v -0.103926 0.120639 0.077757
v -0.093001 0.199309 0.175644
v -0.070810 0.200023 0.172593
v -0.092653 0.196726 0.177573
v -0.070462 0.197439 0.174523
v -0.059668 0.124656 0.069696
v -0.037253 0.125377 0.066615
v -0.036904 0.122794 0.068545
v -0.059320 0.122073 0.071626
v -0.048395 0.200743 0.169513
v -0.025979 0.201464 0.166432
v -0.048046 0.198160 0.171442
v -0.025631 0.198881 0.168361
v -0.014837 0.126097 0.063534
v -0.014489 0.123514 0.065464
v -0.003564 0.202185 0.163351
v -0.003216 0.199601 0.165280
v -0.014009 0.214161 0.154037
v -0.027441 0.217381 0.153100
v -0.047438 0.216624 0.155935
v -0.071007 0.212283 0.161906
v -0.093688 0.202983 0.171557
v -0.104768 0.128201 0.073451
v -0.082087 0.137501 0.063801
v -0.058518 0.141842 0.057830
v -0.038521 0.142599 0.054994
v -0.025089 0.139378 0.055932
v -0.104193 0.123959 0.076620
v -0.082358 0.124773 0.073533
v -0.060297 0.125552 0.070448
v -0.038306 0.126261 0.067424
v -0.016443 0.126893 0.064473
v -0.005363 0.201675 0.162578
v -0.027226 0.201044 0.165529
v -0.049217 0.200335 0.168553
v -0.071278 0.199555 0.171639
v -0.093113 0.198741 0.174725
v -0.093078 0.198809 0.174988
v -0.071179 0.199513 0.171978
v -0.049058 0.200224 0.168938
v -0.026937 0.200935 0.165897
v -0.004817 0.201647 0.162857
v -0.015942 0.126560 0.064352
v -0.038063 0.125848 0.067393
v -0.060183 0.125137 0.070433
v -0.082304 0.124426 0.073473
v -0.104203 0.123722 0.076483
v -0.014022 0.214078 0.153928
v -0.005375 0.201592 0.162469
v -0.005210 0.201400 0.162597
v -0.004829 0.201563 0.162747
v -0.003577 0.202100 0.163240
v -0.003228 0.199517 0.165169
v -0.004862 0.198816 0.164527
v -0.026893 0.198108 0.167555
v -0.048924 0.197400 0.170583
v -0.070955 0.196692 0.173611
v -0.092766 0.195990 0.176609
v -0.093717 0.203020 0.171358
v -0.071001 0.212479 0.161582
v -0.047390 0.216920 0.155530
v -0.027449 0.217679 0.152699
v -0.014254 0.214350 0.153747
v -0.025074 0.139483 0.056069
v -0.016427 0.126997 0.064610
v -0.016263 0.126805 0.064738
v -0.015926 0.126664 0.064490
v -0.014822 0.126204 0.063673
v -0.014473 0.123620 0.065603
v -0.015914 0.124221 0.066668
v -0.037945 0.123513 0.069696
v -0.059976 0.122805 0.072724
v -0.082007 0.122097 0.075752
v -0.103818 0.121395 0.078750
v -0.104769 0.128425 0.073499
v -0.082053 0.137884 0.063723
v -0.058442 0.142325 0.057671
v -0.038501 0.143084 0.054840
v -0.025307 0.139755 0.055888
v -0.025469 0.139687 0.055739
v -0.025239 0.139414 0.055922
v -0.016686 0.126886 0.064506
v -0.016523 0.126692 0.064635
v -0.016188 0.126552 0.064386
v -0.015087 0.126089 0.063568
v -0.014738 0.123506 0.065498
v -0.016175 0.124109 0.066564
v -0.016159 0.124214 0.066701
v -0.005107 0.198809 0.164560
v -0.005095 0.198892 0.164670
v -0.003465 0.199593 0.165315
v -0.003813 0.202177 0.163385
v -0.005063 0.201639 0.162890
v -0.005443 0.201475 0.162740
v -0.005606 0.201668 0.162611
v -0.014158 0.214197 0.154027
v -0.014389 0.214470 0.153845
v -0.014401 0.214387 0.153735
v -0.025453 0.139792 0.055876
vn -0.9151 0.3638 -0.1740
vn -0.9494 0.2921 -0.1154
vn -0.9494 0.2921 -0.1155
vn -0.0895 -0.6038 -0.7921
vn 0.1074 -0.7965 0.5950
vn 0.0895 0.6038 0.7921
vn 0.3454 0.7271 -0.5933
vn 0.1994 0.7683 -0.6082
vn 0.1995 0.7683 -0.6082
vn 0.3454 0.7272 -0.5933
vn -0.0017 0.7954 -0.6061
vn -0.2406 0.7848 -0.5711
vn -0.2407 0.7848 -0.5711
vn -0.4412 0.7370 -0.5120
vn 0.9554 0.1728 -0.2396
vn -0.9902 -0.0318 0.1361
vn -0.1074 0.7965 -0.5950
vn -0.0894 -0.6038 -0.7921
vn -0.9492 0.2926 -0.1158
vn -0.9151 0.3639 -0.1740
vn 0.1997 0.7683 -0.6082
vn -0.0018 0.7954 -0.6061
vn 0.8095 0.4193 -0.4110
vn 0.8628 0.3504 -0.3645
vn -0.5376 0.6988 -0.4719
vn -0.5376 0.6987 -0.4719
vn -0.4041 0.7489 -0.5252
vn -0.4040 0.7489 -0.5253
vn -0.2119 0.7886 -0.5772
vn -0.2118 0.7886 -0.5772
vn 0.0279 0.7935 -0.6080
vn 0.0278 0.7935 -0.6080
vn 0.2395 0.7589 -0.6055
vn -0.9935 0.1102 0.0282
vn 0.9902 0.0318 -0.1361
vn 0.8624 0.3508 -0.3648
vn -0.5376 0.6987 -0.4720
vn -0.4042 0.7489 -0.5252
vt 0.668763 0.146100
vt 0.668550 0.145506
vt 0.669018 0.145338
vt 0.669231 0.145934
vt 0.941891 0.135967
vt 0.871638 0.138755
vt 0.871493 0.138314
vt 0.941883 0.135775
vt 0.763094 0.643440
vt 0.698315 0.643440
vt 0.698315 0.642982
vt 0.763094 0.642982
vt 0.050121 0.125816
vt 0.124796 0.135702
vt 0.124796 0.136167
vt 0.050096 0.126006
vt 0.487317 0.571181
vt 0.409995 0.570985
vt 0.409995 0.570490
vt 0.487317 0.570685
vt 0.800474 0.141036
vt 0.800753 0.141630
vt 0.739106 0.143354
vt 0.738955 0.142750
vt 0.632882 0.643440
vt 0.567449 0.643440
vt 0.567449 0.642982
vt 0.632882 0.642982
vt 0.198012 0.142400
vt 0.261952 0.142662
vt 0.261790 0.143363
vt 0.197974 0.143055
vt 0.332584 0.570982
vt 0.268751 0.571047
vt 0.268749 0.570552
vt 0.332583 0.570488
vt 0.227671 0.571104
vt 0.227666 0.570610
vt 0.669570 0.145222
vt 0.669353 0.144632
vt 0.502743 0.643440
vt 0.502743 0.642982
vt 0.307537 0.143269
vt 0.307547 0.143897
vt 0.489623 0.570687
vt 0.489613 0.571181
vt 0.942594 0.135790
vt 0.942600 0.135940
vt 0.763748 0.642982
vt 0.763748 0.643440
vt 0.049392 0.125913
vt 0.049412 0.125764
vt 0.763082 0.634700
vt 0.763082 0.640119
vt 0.697174 0.640119
vt 0.697174 0.634700
vt 0.697174 0.979447
vt 0.697174 0.974028
vt 0.763082 0.974028
vt 0.763082 0.979447
vt 0.630599 0.634700
vt 0.630599 0.640119
vt 0.564024 0.640119
vt 0.564024 0.634700
vt 0.564024 0.979447
vt 0.564024 0.974028
vt 0.630599 0.974028
vt 0.630599 0.979447
vt 0.498190 0.640119
vt 0.498190 0.634700
vt 0.492031 0.640119
vt 0.497450 0.640119
vt 0.497450 0.640585
vt 0.492031 0.640585
vt 0.498190 0.979447
vt 0.498190 0.974028
vt 0.763748 0.634700
vt 0.763748 0.640119
vt 0.763748 0.974028
vt 0.763748 0.979447
vt 0.763094 0.631838
vt 0.763091 0.632506
vt 0.698049 0.632506
vt 0.698315 0.631838
vt 0.698315 0.982309
vt 0.698049 0.981642
vt 0.763091 0.981642
vt 0.763094 0.982309
vt 0.763094 0.971166
vt 0.698315 0.971166
vt 0.632882 0.631838
vt 0.632349 0.632506
vt 0.566650 0.632506
vt 0.567449 0.631838
vt 0.567449 0.982309
vt 0.566650 0.981642
vt 0.632349 0.981642
vt 0.632882 0.982309
vt 0.632882 0.971166
vt 0.567449 0.971166
vt 0.501681 0.632505
vt 0.502743 0.631838
vt 0.487465 0.642982
vt 0.488530 0.642314
vt 0.488530 0.642774
vt 0.487465 0.643440
vt 0.502016 0.643440
vt 0.502016 0.642982
vt 0.502743 0.982310
vt 0.501681 0.981642
vt 0.502743 0.971166
vt 0.763748 0.631838
vt 0.763748 0.632506
vt 0.763748 0.981642
vt 0.763748 0.982309
vt 0.763748 0.971166
vt 0.270338 0.106555
vt 0.307055 0.110878
vt 0.307069 0.111767
vt 0.270108 0.107545
vt 0.199960 0.108630
vt 0.199907 0.109556
vt 0.124799 0.111756
vt 0.124799 0.112412
vt 0.051408 0.115952
vt 0.051373 0.116222
vt 0.050399 0.118258
vt 0.050427 0.118047
vt 0.942291 0.128017
vt 0.942299 0.128229
vt 0.941515 0.126115
vt 0.941504 0.125843
vt 0.864225 0.116207
vt 0.864020 0.115584
vt 0.786518 0.110684
vt 0.786125 0.109844
vt 0.717114 0.107477
vt 0.716901 0.106622
vt 0.667409 0.111835
vt 0.667102 0.111001
vt 0.666523 0.111622
vt 0.666991 0.111452
vt 0.667292 0.112293
vt 0.666825 0.112462
vt 0.308105 0.143807
vt 0.307343 0.112153
vt 0.307740 0.112144
vt 0.308501 0.143797
vt 0.308120 0.144439
vt 0.308517 0.144428
vt 0.488530 0.971466
vt 0.488530 0.971833
vt 0.487465 0.971166
vt 0.487465 0.970800
vt 0.492031 0.973656
vt 0.492031 0.974028
vt 0.497450 0.973656
vt 0.497450 0.974028
vt 0.502016 0.971166
vt 0.502016 0.970800
vt 0.502743 0.970800
vt 0.567449 0.970800
vt 0.632882 0.970800
vt 0.698315 0.970800
vt 0.763094 0.970800
vt 0.763748 0.970800
vt 0.487676 0.215808
vt 0.487672 0.215413
vt 0.489953 0.215411
vt 0.489978 0.215806
vt 0.410115 0.215879
vt 0.410115 0.215484
vt 0.332612 0.215862
vt 0.332613 0.215467
vt 0.268755 0.215798
vt 0.268757 0.215403
vt 0.227667 0.215742
vt 0.227671 0.215347
vt 0.307321 0.111259
vt 0.307718 0.111251
vt 0.500950 0.632505
vt 0.502016 0.631838
vt 0.497450 0.634700
vt 0.497450 0.979447
vt 0.500950 0.981642
vt 0.502016 0.982310
vt 0.227205 0.215741
vt 0.227210 0.215346
vt 0.227204 0.570611
vt 0.227210 0.571106
vt 0.321229 0.078332
vt 0.320609 0.078234
vt 0.320741 0.077613
vt 0.321278 0.077735
vt 0.078182 0.073908
vt 0.078170 0.073711
vt 0.147916 0.069968
vt 0.147807 0.070420
vt 0.202517 0.642772
vt 0.202517 0.642314
vt 0.267296 0.642314
vt 0.267296 0.642772
vt 0.906379 0.064087
vt 0.906388 0.064282
vt 0.836323 0.066560
vt 0.836182 0.066118
vt 0.491817 0.571114
vt 0.491805 0.570616
vt 0.569059 0.570469
vt 0.569057 0.570963
vt 0.218826 0.072579
vt 0.269688 0.078137
vt 0.269409 0.078829
vt 0.218611 0.073196
vt 0.332729 0.642772
vt 0.332729 0.642314
vt 0.398163 0.642314
vt 0.398163 0.642772
vt 0.766679 0.068367
vt 0.766958 0.068949
vt 0.715422 0.074977
vt 0.714947 0.074288
vt 0.646511 0.570980
vt 0.646512 0.570486
vt 0.710356 0.570525
vt 0.710356 0.571019
vt 0.751391 0.570568
vt 0.751385 0.571061
vt 0.320289 0.076910
vt 0.320096 0.077485
vt 0.462868 0.642314
vt 0.462868 0.642772
vt 0.655068 0.072538
vt 0.655021 0.071939
vt 0.489617 0.571114
vt 0.489504 0.570625
vt 0.077481 0.073893
vt 0.077508 0.074044
vt 0.201863 0.642314
vt 0.201863 0.642772
vt 0.907097 0.064322
vt 0.907093 0.064170
vt 0.202529 0.634032
vt 0.268438 0.634032
vt 0.268438 0.639451
vt 0.202529 0.639451
vt 0.268438 0.978779
vt 0.202529 0.978779
vt 0.202529 0.973360
vt 0.268438 0.973360
vt 0.335012 0.634032
vt 0.401587 0.634032
vt 0.401587 0.639451
vt 0.335012 0.639451
vt 0.401587 0.978779
vt 0.335012 0.978779
vt 0.335012 0.973360
vt 0.401587 0.973360
vt 0.467421 0.634032
vt 0.467421 0.639451
vt 0.473580 0.639451
vt 0.473580 0.639917
vt 0.468161 0.639917
vt 0.468161 0.639451
vt 0.467421 0.978779
vt 0.467421 0.973360
vt 0.201863 0.634032
vt 0.201863 0.639451
vt 0.201863 0.978779
vt 0.201863 0.973360
vt 0.148119 0.071132
vt 0.078076 0.075049
vt 0.906411 0.065015
vt 0.836062 0.067292
vt 0.202517 0.970498
vt 0.267296 0.970498
vt 0.290939 0.072739
vt 0.219235 0.073879
vt 0.766423 0.069685
vt 0.715198 0.076877
vt 0.332729 0.970498
vt 0.398163 0.970498
vt 0.319794 0.078740
vt 0.320513 0.079439
vt 0.319993 0.079442
vt 0.463596 0.642772
vt 0.463596 0.642314
vt 0.654899 0.073788
vt 0.462868 0.970498
vt 0.077582 0.074737
vt 0.907114 0.065048
vt 0.201863 0.970498
vt 0.690547 0.038887
vt 0.691224 0.039870
vt 0.653849 0.041264
vt 0.653798 0.040366
vt 0.752385 0.038537
vt 0.752777 0.039362
vt 0.828878 0.043657
vt 0.829080 0.044276
vt 0.905669 0.053768
vt 0.905683 0.054043
vt 0.906490 0.056121
vt 0.906477 0.055904
vt 0.076868 0.065611
vt 0.077438 0.063387
vt 0.077453 0.063662
vt 0.076880 0.065827
vt 0.153462 0.047488
vt 0.153623 0.046851
vt 0.229585 0.041555
vt 0.229887 0.040671
vt 0.285728 0.039250
vt 0.285234 0.040148
vt 0.324330 0.042166
vt 0.324911 0.041625
vt 0.324789 0.041607
vt 0.324773 0.042468
vt 0.324435 0.042578
vt 0.324721 0.042034
vt 0.202520 0.980974
vt 0.201863 0.980974
vt 0.267563 0.980974
vt 0.333262 0.980974
vt 0.398961 0.980974
vt 0.463931 0.980974
vt 0.477081 0.641646
vt 0.477081 0.642106
vt 0.398961 0.631838
vt 0.463931 0.631838
vt 0.333262 0.631838
vt 0.267563 0.631838
vt 0.202520 0.631838
vt 0.201863 0.631838
vt 0.654455 0.072521
vt 0.654034 0.072545
vt 0.653200 0.041724
vt 0.653600 0.041677
vt 0.654453 0.073144
vt 0.654038 0.073165
vt 0.654732 0.074286
vt 0.655059 0.074530
vt 0.473580 0.972988
vt 0.477081 0.970798
vt 0.477081 0.971166
vt 0.473580 0.973360
vt 0.468161 0.972988
vt 0.468161 0.973360
vt 0.463596 0.970498
vt 0.463596 0.970132
vt 0.398163 0.970132
vt 0.462868 0.970132
vt 0.332729 0.970132
vt 0.267296 0.970132
vt 0.202517 0.970132
vt 0.201863 0.970132
vt 0.491563 0.215690
vt 0.489262 0.215687
vt 0.489295 0.215293
vt 0.491568 0.215296
vt 0.569000 0.215756
vt 0.569000 0.215361
vt 0.646502 0.215730
vt 0.646501 0.215336
vt 0.710354 0.215691
vt 0.710353 0.215297
vt 0.751391 0.215648
vt 0.751386 0.215254
vt 0.653171 0.040863
vt 0.653562 0.040768
vt 0.464661 0.631838
vt 0.468161 0.634032
vt 0.468161 0.978779
vt 0.464661 0.980974
vt 0.751852 0.215647
vt 0.751847 0.215253
vt 0.751853 0.570570
vt 0.751845 0.571064
s 1
usemtl mia_material_x2SG
f 117/1/1 116/2/2 78/3/3 4/4/1
f 20/5/4 11/6/4 75/7/4 74/8/4
f 125/9/5 124/10/5 27/11/5 26/12/5
f 83/13/6 82/14/6 12/15/6 22/16/6
f 18/17/7 10/18/8 129/19/9 128/20/10
f 76/21/4 6/22/4 15/23/4 77/24/4
f 123/25/5 122/26/5 31/27/5 29/28/5
f 81/29/6 80/30/6 16/31/6 7/32/6
f 5/33/11 14/34/12 131/35/13 130/36/11
f 10/18/8 5/33/11 130/36/11 129/19/9
f 11/6/4 6/22/4 76/21/4 75/7/4
f 124/10/5 123/25/5 29/28/5 27/11/5
f 82/14/6 81/29/6 7/32/6 12/15/6
f 14/34/12 133/37/14 152/38/14 131/35/13
f 15/23/4 136/39/4 135/40/4 77/24/4
f 122/26/5 141/41/5 140/42/5 31/27/5
f 80/30/6 148/43/6 147/44/6 16/31/6
f 18/17/7 128/20/10 127/45/15 17/46/15
f 73/47/4 19/48/4 20/5/4 74/8/4
f 35/49/5 126/50/5 125/9/5 26/12/5
f 21/51/6 84/52/6 83/13/6 22/16/6
f 37/53/4 40/54/4 39/55/4 38/56/4
f 42/57/6 44/58/6 43/59/6 41/60/6
f 45/61/4 48/62/4 47/63/4 46/64/4
f 50/65/6 52/66/6 51/67/6 49/68/6
f 38/56/4 39/55/4 48/62/4 45/61/4
f 49/68/6 51/67/6 44/58/6 42/57/6
f 46/64/4 47/63/4 139/69/4 138/70/4
f 53/71/16 54/72/16 120/73/16 119/74/16
f 145/75/6 144/76/6 52/66/6 50/65/6
f 57/77/4 58/78/4 40/54/4 37/53/4
f 41/60/6 43/59/6 60/79/6 59/80/6
f 20/81/17 95/82/17 94/83/17 11/84/17
f 27/11/5 39/55/5 40/54/5 26/12/5
f 12/85/17 87/86/17 86/87/17 22/88/17
f 25/89/5 43/59/5 44/58/5 28/90/5
f 6/91/17 93/92/17 92/93/17 15/94/17
f 31/27/5 47/63/5 48/62/5 29/28/5
f 16/95/17 89/96/17 88/97/17 7/98/17
f 30/99/5 51/67/5 52/66/5 32/100/5
f 11/84/17 94/83/17 93/92/17 6/91/17
f 29/28/5 48/62/5 39/55/5 27/11/5
f 7/98/17 88/97/17 87/86/17 12/85/17
f 28/90/5 44/58/5 51/67/5 30/99/5
f 15/94/17 92/93/17 137/101/17 136/102/17
f 140/42/5 139/69/5 47/63/5 31/27/5
f 4/103/17 91/104/17 118/105/17 117/106/17
f 121/107/5 120/73/5 54/72/5 33/108/5
f 147/109/17 146/110/17 89/96/17 16/95/17
f 32/100/5 52/66/5 144/76/5 143/111/5
f 19/112/17 96/113/17 95/82/17 20/81/17
f 26/12/5 40/54/5 58/78/5 35/49/5
f 22/88/17 86/87/17 85/114/17 21/115/17
f 36/116/5 60/79/5 43/59/5 25/89/5
f 13/117/6 150/118/6 149/119/6 62/120/6
f 8/121/6 13/117/6 62/120/6 63/122/6
f 9/123/6 8/121/6 63/122/6 64/124/6
f 24/125/6 9/123/6 64/124/6 65/126/6
f 66/127/6 23/128/6 24/125/6 65/126/6
f 17/129/18 67/130/4 68/131/18 18/132/18
f 69/133/4 10/134/4 18/132/18 68/131/18
f 70/135/4 5/136/4 10/134/4 69/133/4
f 5/136/4 70/135/4 71/137/4 14/138/4
f 134/139/4 133/140/4 14/138/4 71/137/4
f 132/141/1 3/142/1 72/143/19 115/144/19
f 67/130/4 73/47/4 74/8/4 68/131/18
f 75/7/4 69/133/4 68/131/18 74/8/4
f 76/21/4 70/135/4 69/133/4 75/7/4
f 70/135/4 76/21/4 77/24/4 71/137/4
f 135/40/4 134/139/4 71/137/4 77/24/4
f 116/2/2 115/144/19 72/143/19 78/3/3
f 62/120/6 149/119/6 148/43/6 80/30/6
f 63/122/6 62/120/6 80/30/6 81/29/6
f 64/124/6 63/122/6 81/29/6 82/14/6
f 65/126/6 64/124/6 82/14/6 83/13/6
f 84/52/6 66/127/6 65/126/6 83/13/6
f 86/87/17 41/60/17 59/80/17 85/114/17
f 87/86/17 42/57/17 41/60/17 86/87/17
f 88/97/17 49/68/17 42/57/17 87/86/17
f 89/96/17 50/65/17 49/68/17 88/97/17
f 146/110/17 145/75/17 50/65/17 89/96/17
f 91/104/17 53/71/17 119/74/17 118/105/17
f 92/93/17 46/64/17 138/70/17 137/101/17
f 93/92/17 45/61/17 46/64/17 92/93/17
f 94/83/17 38/56/17 45/61/17 93/92/17
f 95/82/17 37/53/17 38/56/17 94/83/17
f 96/113/17 57/77/17 37/53/17 95/82/17
f 79/145/2 61/146/19 97/147/19 98/148/3
f 1/149/20 79/145/2 98/148/3 99/150/20
f 100/151/17 90/152/17 1/153/17 99/154/17
f 101/155/17 55/156/17 90/152/17 100/151/17
f 102/157/16 56/158/16 55/156/16 101/155/16
f 34/159/5 56/158/5 102/157/5 103/160/5
f 32/100/5 143/111/5 142/161/5 104/162/5
f 30/99/5 32/100/5 104/162/5 105/163/5
f 28/90/5 30/99/5 105/163/5 106/164/5
f 25/89/5 28/90/5 106/164/5 107/165/5
f 108/166/5 36/116/5 25/89/5 107/165/5
f 110/167/7 24/168/7 23/169/15 109/170/15
f 111/171/21 9/172/9 24/168/7 110/167/7
f 112/173/11 8/174/22 9/172/9 111/171/21
f 113/175/12 13/176/13 8/174/22 112/173/11
f 151/177/14 150/178/14 13/176/13 113/175/12
f 61/146/19 2/179/1 114/180/1 97/147/19
f 98/148/3 97/147/19 115/144/19 116/2/2
f 99/150/20 98/148/3 116/2/2 117/1/1
f 118/105/17 100/151/17 99/154/17 117/106/17
f 119/74/17 101/155/17 100/151/17 118/105/17
f 120/73/16 102/157/16 101/155/16 119/74/16
f 103/160/5 102/157/5 120/73/5 121/107/5
f 104/162/5 142/161/5 141/41/5 122/26/5
f 105/163/5 104/162/5 122/26/5 123/25/5
f 106/164/5 105/163/5 123/25/5 124/10/5
f 107/165/5 106/164/5 124/10/5 125/9/5
f 126/50/5 108/166/5 107/165/5 125/9/5
f 128/20/10 110/167/7 109/170/15 127/45/15
f 129/19/9 111/171/21 110/167/7 128/20/10
f 130/36/11 112/173/11 111/171/21 129/19/9
f 131/35/13 113/175/12 112/173/11 130/36/11
f 152/38/14 151/177/14 113/175/12 131/35/13
f 114/180/1 132/141/1 115/144/19 97/147/19
f 72/143/4 3/142/4 133/140/4 134/139/4
f 78/3/4 72/143/4 134/139/4 135/40/4
f 136/39/4 4/4/4 78/3/4 135/40/4
f 137/101/17 91/181/17 4/182/17 136/102/17
f 138/70/17 53/183/17 91/181/17 137/101/17
f 139/69/4 54/72/4 53/183/4 138/70/4
f 33/108/5 54/72/5 139/69/5 140/42/5
f 141/41/5 121/107/5 33/108/5 140/42/5
f 142/161/5 103/160/5 121/107/5 141/41/5
f 143/111/5 34/159/5 103/160/5 142/161/5
f 144/76/5 56/158/5 34/159/5 143/111/5
f 55/184/6 56/158/6 144/76/6 145/75/6
f 90/185/17 55/184/17 145/75/17 146/110/17
f 1/186/17 90/185/17 146/110/17 147/109/17
f 148/43/6 79/145/6 1/149/6 147/44/6
f 149/119/6 61/146/6 79/145/6 148/43/6
f 150/118/6 2/179/6 61/146/6 149/119/6
f 114/187/14 2/188/14 150/178/14 151/177/14
f 132/189/14 114/187/14 151/177/14 152/38/14
f 133/37/14 3/190/14 132/189/14 152/38/14
f 251/191/23 156/192/23 217/193/24 250/194/24
f 170/195/4 213/196/4 214/197/4 163/198/4
f 259/199/5 174/200/5 175/201/5 258/202/5
f 222/203/6 171/204/6 164/205/6 221/206/6
f 169/207/25 260/208/26 261/209/27 162/210/28
f 215/211/4 216/212/4 167/213/4 158/214/4
f 257/215/5 177/216/5 179/217/5 256/218/5
f 220/219/6 159/220/6 168/221/6 219/222/6
f 157/223/29 262/224/30 263/225/31 166/226/32
f 162/210/28 261/209/27 262/224/30 157/223/29
f 163/198/4 214/197/4 215/211/4 158/214/4
f 258/202/5 175/201/5 177/216/5 257/215/5
f 221/206/6 164/205/6 159/220/6 220/219/6
f 166/226/32 263/225/31 284/227/33 265/228/33
f 167/213/4 216/212/4 267/229/4 268/230/4
f 256/218/5 179/217/5 272/231/5 273/232/5
f 219/222/6 168/221/6 279/233/6 280/234/6
f 169/207/25 17/235/34 127/236/34 260/208/26
f 73/237/4 213/196/4 170/195/4 19/238/4
f 35/239/5 174/200/5 259/199/5 126/240/5
f 21/241/6 171/204/6 222/203/6 84/242/6
f 183/243/4 184/244/4 185/245/4 186/246/4
f 188/247/6 187/248/6 189/249/6 190/250/6
f 191/251/4 192/252/4 193/253/4 194/254/4
f 196/255/6 195/256/6 197/257/6 198/258/6
f 184/244/4 191/251/4 194/254/4 185/245/4
f 195/256/6 188/247/6 190/250/6 197/257/6
f 192/252/4 270/259/4 271/260/4 193/253/4
f 199/261/35 253/262/35 254/263/35 200/264/35
f 277/265/6 196/255/6 198/258/6 276/266/6
f 57/267/4 183/243/4 186/246/4 58/268/4
f 187/248/6 59/269/6 60/270/6 189/249/6
f 170/195/17 163/198/17 231/271/17 232/272/17
f 175/201/5 174/200/5 186/246/5 185/245/5
f 164/205/17 171/204/17 223/273/17 224/274/17
f 173/275/5 176/276/5 190/250/5 189/249/5
f 158/214/17 167/213/17 229/277/17 230/278/17
f 179/217/5 177/216/5 194/254/5 193/253/5
f 168/221/17 159/220/17 225/279/17 226/280/17
f 178/281/5 180/282/5 198/258/5 197/257/5
f 163/198/17 158/214/17 230/278/17 231/271/17
f 177/216/5 175/201/5 185/245/5 194/254/5
f 159/220/17 164/205/17 224/274/17 225/279/17
f 176/276/5 178/281/5 197/257/5 190/250/5
f 167/213/17 268/230/17 269/283/17 229/277/17
f 272/231/5 179/217/5 193/253/5 271/260/5
f 156/192/17 251/191/17 252/284/17 228/285/17
f 255/286/5 181/287/5 200/264/5 254/263/5
f 279/233/17 168/221/17 226/280/17 278/288/17
f 180/282/5 275/289/5 276/266/5 198/258/5
f 19/238/17 170/195/17 232/272/17 96/290/17
f 174/200/5 35/239/5 58/268/5 186/246/5
f 171/204/17 21/241/17 85/291/17 223/273/17
f 36/292/5 173/275/5 189/249/5 60/270/5
f 165/293/6 204/294/6 281/295/6 282/296/6
f 160/297/6 205/298/6 204/294/6 165/293/6
f 161/299/6 206/300/6 205/298/6 160/297/6
f 172/301/6 207/302/6 206/300/6 161/299/6
f 66/303/6 207/302/6 172/301/6 23/304/6
f 17/305/18 169/306/4 208/307/4 67/308/4
f 209/309/4 208/307/4 169/306/4 162/310/4
f 210/311/4 209/309/4 162/310/4 157/312/4
f 157/312/4 166/313/4 211/314/4 210/311/4
f 266/315/4 211/314/4 166/313/4 265/316/4
f 264/317/23 249/318/36 212/319/36 155/320/23
f 67/308/4 208/307/4 213/196/4 73/237/4
f 214/197/4 213/196/4 208/307/4 209/309/4
f 215/211/4 214/197/4 209/309/4 210/311/4
f 210/311/4 211/314/4 216/212/4 215/211/4
f 267/229/4 216/212/4 211/314/4 266/315/4
f 250/194/24 217/193/24 212/319/36 249/318/36
f 204/294/6 219/222/6 280/234/6 281/295/6
f 205/298/6 220/219/6 219/222/6 204/294/6
f 206/300/6 221/206/6 220/219/6 205/298/6
f 207/302/6 222/203/6 221/206/6 206/300/6
f 84/242/6 222/203/6 207/302/6 66/303/6
f 223/321/17 85/322/17 59/269/17 187/248/17
f 224/323/17 223/321/17 187/248/17 188/247/17
f 225/324/17 224/323/17 188/247/17 195/256/17
f 226/325/17 225/324/17 195/256/17 196/255/17
f 278/326/17 226/325/17 196/255/17 277/265/17
f 228/327/17 252/328/17 253/262/17 199/261/17
f 229/329/17 269/330/17 270/259/17 192/252/17
f 230/331/17 229/329/17 192/252/17 191/251/17
f 231/332/17 230/331/17 191/251/17 184/244/17
f 232/333/17 231/332/17 184/244/17 183/243/17
f 96/334/17 232/333/17 183/243/17 57/267/17
f 218/335/24 234/336/24 233/337/36 203/338/36
f 153/339/23 235/340/23 234/336/24 218/335/24
f 236/341/17 235/340/17 153/339/17 227/342/17
f 237/343/17 236/344/17 227/345/17 201/346/17
f 238/347/35 237/343/35 201/346/35 202/348/35
f 182/349/5 239/350/5 238/347/5 202/348/5
f 180/282/5 240/351/5 274/352/5 275/289/5
f 178/281/5 241/353/5 240/351/5 180/282/5
f 176/276/5 242/354/5 241/353/5 178/281/5
f 173/275/5 243/355/5 242/354/5 176/276/5
f 108/356/5 243/355/5 173/275/5 36/292/5
f 244/357/37 109/358/34 23/359/34 172/360/25
f 245/361/38 244/357/37 172/360/25 161/362/27
f 246/363/30 245/361/38 161/362/27 160/364/30
f 247/365/31 246/363/30 160/364/30 165/366/31
f 283/367/33 247/365/31 165/366/31 282/368/33
f 203/338/36 233/337/36 248/369/23 154/370/23
f 234/336/24 250/194/24 249/318/36 233/337/36
f 235/340/23 251/191/23 250/194/24 234/336/24
f 252/284/17 251/191/17 235/340/17 236/341/17
f 253/262/17 252/328/17 236/344/17 237/343/17
f 254/263/35 253/262/35 237/343/35 238/347/35
f 239/350/5 255/286/5 254/263/5 238/347/5
f 240/351/5 256/218/5 273/232/5 274/352/5
f 241/353/5 257/215/5 256/218/5 240/351/5
f 242/354/5 258/202/5 257/215/5 241/353/5
f 243/355/5 259/199/5 258/202/5 242/354/5
f 126/240/5 259/199/5 243/355/5 108/356/5
f 260/208/26 127/236/34 109/358/34 244/357/37
f 261/209/27 260/208/26 244/357/37 245/361/38
f 262/224/30 261/209/27 245/361/38 246/363/30
f 263/225/31 262/224/30 246/363/30 247/365/31
f 284/227/33 263/225/31 247/365/31 283/367/33
f 248/369/23 233/337/36 249/318/36 264/317/23
f 212/319/4 266/315/4 265/316/4 155/320/18
f 217/193/4 267/229/4 266/315/4 212/319/4
f 268/230/4 267/229/4 217/193/4 156/192/4
f 269/283/17 268/230/17 156/192/17 228/285/17
f 270/259/17 269/330/17 228/371/17 199/372/17
f 271/260/4 270/259/4 199/372/4 200/264/4
f 181/287/5 272/231/5 271/260/5 200/264/5
f 273/232/5 272/231/5 181/287/5 255/286/5
f 274/352/5 273/232/5 255/286/5 239/350/5
f 275/289/5 274/352/5 239/350/5 182/349/5
f 276/266/5 275/289/5 182/349/5 202/348/5
f 201/373/6 277/265/6 276/266/6 202/348/6
f 227/374/17 278/326/17 277/265/17 201/373/17
f 153/339/17 279/233/17 278/288/17 227/342/17
f 280/234/6 279/233/6 153/339/6 218/335/6
f 281/295/6 280/234/6 218/335/6 203/338/6
f 282/296/6 281/295/6 203/338/6 154/370/6
f 248/375/33 283/367/33 282/368/33 154/376/33
f 264/377/33 284/227/33 283/367/33 248/375/33
f 265/228/33 284/227/33 264/377/33 155/378/33
