{
	"asset":{
		"generator":"Khronos glTF Blender I/O v4.4.56",
		"version":"2.0"
	},
	"extensionsUsed":[
		"KHR_materials_specular"
	],
	"scene":0,
	"scenes":[
		{
			"name":"Scene",
			"nodes":[
				6
			]
		}
	],
	"nodes":[
		{
			"name":"Bone.001",
			"rotation":[
				0.5574192404747009,
				-5.82388622660801e-07,
				0.2833518981933594,
				0.7803816199302673
			],
			"scale":[
				1,
				0.9999998807907104,
				0.9999998807907104
			],
			"translation":[
				4.470348358154297e-08,
				1.0000001192092896,
				-4.470348358154297e-08
			]
		},
		{
			"children":[
				0
			],
			"name":"Bone",
			"rotation":[
				7.1013350755322335e-09,
				1.862645371275562e-09,
				0,
				1
			],
			"scale":[
				1,
				1,
				0.9999999403953552
			],
			"translation":[
				0.002802599221467972,
				-0.7513812184333801,
				-0.005513414740562439
			]
		},
		{
			"mesh":0,
			"name":"book",
			"skin":0
		},
		{
			"name":"Empty",
			"rotation":[
				0.9999905824661255,
				0,
				0,
				0.004359682090580463
			],
			"scale":[
				0.16417258977890015,
				0.1741725504398346,
				0.16417261958122253
			]
		},
		{
			"mesh":1,
			"name":"Plane",
			"rotation":[
				0.7070799469947815,
				0.00617056293413043,
				0.006170522887259722,
				0.7070798277854919
			],
			"scale":[
				0.5253522992134094,
				0.6966903209686279,
				0.6566903591156006
			],
			"translation":[
				0.5253522992134094,
				0,
				0
			]
		},
		{
			"children":[
				3,
				4
			],
			"name":"parent",
			"rotation":[
				0.019764795899391174,
				0.4986816942691803,
				-0.005681793671101332,
				0.8665412068367004
			],
			"translation":[
				0.024481676518917084,
				-0.14110445976257324,
				0.013243898749351501
			]
		},
		{
			"children":[
				2,
				5,
				1
			],
			"name":"Armature",
			"rotation":[
				0.4262629449367523,
				-0.08405234664678574,
				-0.05519085004925728,
				0.8989933729171753
			],
			"scale":[
				0.09370613098144531,
				0.09370613843202591,
				0.09370612353086472
			],
			"translation":[
				-0.1031961515545845,
				0.15480615198612213,
				0.10361294448375702
			]
		}
	],
	"animations":[
		{
			"channels":[
				{
					"sampler":0,
					"target":{
						"node":1,
						"path":"translation"
					}
				},
				{
					"sampler":1,
					"target":{
						"node":1,
						"path":"rotation"
					}
				},
				{
					"sampler":2,
					"target":{
						"node":1,
						"path":"scale"
					}
				},
				{
					"sampler":3,
					"target":{
						"node":0,
						"path":"translation"
					}
				},
				{
					"sampler":4,
					"target":{
						"node":0,
						"path":"rotation"
					}
				},
				{
					"sampler":5,
					"target":{
						"node":0,
						"path":"scale"
					}
				}
			],
			"name":"run",
			"samplers":[
				{
					"input":11,
					"interpolation":"STEP",
					"output":12
				},
				{
					"input":13,
					"interpolation":"LINEAR",
					"output":14
				},
				{
					"input":11,
					"interpolation":"STEP",
					"output":15
				},
				{
					"input":11,
					"interpolation":"LINEAR",
					"output":16
				},
				{
					"input":11,
					"interpolation":"LINEAR",
					"output":17
				},
				{
					"input":11,
					"interpolation":"STEP",
					"output":18
				}
			]
		},
		{
			"channels":[
				{
					"sampler":0,
					"target":{
						"node":4,
						"path":"translation"
					}
				},
				{
					"sampler":1,
					"target":{
						"node":4,
						"path":"rotation"
					}
				},
				{
					"sampler":2,
					"target":{
						"node":4,
						"path":"scale"
					}
				}
			],
			"name":"book",
			"samplers":[
				{
					"input":19,
					"interpolation":"STEP",
					"output":20
				},
				{
					"input":19,
					"interpolation":"STEP",
					"output":21
				},
				{
					"input":19,
					"interpolation":"STEP",
					"output":22
				}
			]
		}
	],
	"materials":[
		{
			"doubleSided":true,
			"extensions":{
				"KHR_materials_specular":{
					"specularFactor":0
				}
			},
			"name":"mia_material_x2SG",
			"pbrMetallicRoughness":{
				"baseColorFactor":[
					0.800000011920929,
					0.800000011920929,
					0.800000011920929,
					1
				],
				"metallicFactor":0
			}
		}
	],
	"meshes":[
		{
			"name":"book",
			"primitives":[
				{
					"attributes":{
						"POSITION":0,
						"NORMAL":1,
						"TEXCOORD_0":2,
						"JOINTS_0":3,
						"WEIGHTS_0":4
					},
					"indices":5,
					"material":0
				}
			]
		},
		{
			"name":"Plane",
			"primitives":[
				{
					"attributes":{
						"POSITION":7,
						"NORMAL":8,
						"TEXCOORD_0":9
					},
					"indices":10
				}
			]
		}
	],
	"skins":[
		{
			"inverseBindMatrices":6,
			"joints":[
				1,
				0
			],
			"name":"Armature"
		}
	],
	"accessors":[
		{
			"bufferView":0,
			"componentType":5126,
			"count":482,
			"max":[
				-0.0054789031855762005,
				0.20319215953350067,
				0.15549148619174957
			],
			"min":[
				-0.18818522989749908,
				0.0936431810259819,
				0.024310586974024773
			],
			"type":"VEC3"
		},
		{
			"bufferView":1,
			"componentType":5126,
			"count":482,
			"type":"VEC3"
		},
		{
			"bufferView":2,
			"componentType":5126,
			"count":482,
			"type":"VEC2"
		},
		{
			"bufferView":3,
			"componentType":5121,
			"count":482,
			"type":"VEC4"
		},
		{
			"bufferView":4,
			"componentType":5126,
			"count":482,
			"type":"VEC4"
		},
		{
			"bufferView":5,
			"componentType":5123,
			"count":1692,
			"type":"SCALAR"
		},
		{
			"bufferView":6,
			"componentType":5126,
			"count":2,
			"type":"MAT4"
		},
		{
			"bufferView":7,
			"componentType":5126,
			"count":1156,
			"max":[
				1,
				0,
				1
			],
			"min":[
				-1,
				0,
				-1
			],
			"type":"VEC3"
		},
		{
			"bufferView":8,
			"componentType":5126,
			"count":1156,
			"type":"VEC3"
		},
		{
			"bufferView":9,
			"componentType":5126,
			"count":1156,
			"type":"VEC2"
		},
		{
			"bufferView":10,
			"componentType":5123,
			"count":6534,
			"type":"SCALAR"
		},
		{
			"bufferView":11,
			"componentType":5126,
			"count":2,
			"max":[
				1.625
			],
			"min":[
				0.041666666666666664
			],
			"type":"SCALAR"
		},
		{
			"bufferView":12,
			"componentType":5126,
			"count":2,
			"type":"VEC3"
		},
		{
			"bufferView":13,
			"componentType":5126,
			"count":39,
			"max":[
				1.625
			],
			"min":[
				0.041666666666666664
			],
			"type":"SCALAR"
		},
		{
			"bufferView":14,
			"componentType":5126,
			"count":39,
			"type":"VEC4"
		},
		{
			"bufferView":15,
			"componentType":5126,
			"count":2,
			"type":"VEC3"
		},
		{
			"bufferView":16,
			"componentType":5126,
			"count":2,
			"type":"VEC3"
		},
		{
			"bufferView":17,
			"componentType":5126,
			"count":2,
			"type":"VEC4"
		},
		{
			"bufferView":18,
			"componentType":5126,
			"count":2,
			"type":"VEC3"
		},
		{
			"bufferView":19,
			"componentType":5126,
			"count":2,
			"max":[
				4.875
			],
			"min":[
				0.041666666666666664
			],
			"type":"SCALAR"
		},
		{
			"bufferView":20,
			"componentType":5126,
			"count":2,
			"type":"VEC3"
		},
		{
			"bufferView":21,
			"componentType":5126,
			"count":2,
			"type":"VEC4"
		},
		{
			"bufferView":22,
			"componentType":5126,
			"count":2,
			"type":"VEC3"
		}
	],
	"bufferViews":[
		{
			"buffer":0,
			"byteLength":5784,
			"byteOffset":0,
			"target":34962
		},
		{
			"buffer":0,
			"byteLength":5784,
			"byteOffset":5784,
			"target":34962
		},
		{
			"buffer":0,
			"byteLength":3856,
			"byteOffset":11568,
			"target":34962
		},
		{
			"buffer":0,
			"byteLength":1928,
			"byteOffset":15424,
			"target":34962
		},
		{
			"buffer":0,
			"byteLength":7712,
			"byteOffset":17352,
			"target":34962
		},
		{
			"buffer":0,
			"byteLength":3384,
			"byteOffset":25064,
			"target":34963
		},
		{
			"buffer":0,
			"byteLength":128,
			"byteOffset":28448
		},
		{
			"buffer":0,
			"byteLength":13872,
			"byteOffset":28576,
			"target":34962
		},
		{
			"buffer":0,
			"byteLength":13872,
			"byteOffset":42448,
			"target":34962
		},
		{
			"buffer":0,
			"byteLength":9248,
			"byteOffset":56320,
			"target":34962
		},
		{
			"buffer":0,
			"byteLength":13068,
			"byteOffset":65568,
			"target":34963
		},
		{
			"buffer":0,
			"byteLength":8,
			"byteOffset":78636
		},
		{
			"buffer":0,
			"byteLength":24,
			"byteOffset":78644
		},
		{
			"buffer":0,
			"byteLength":156,
			"byteOffset":78668
		},
		{
			"buffer":0,
			"byteLength":624,
			"byteOffset":78824
		},
		{
			"buffer":0,
			"byteLength":24,
			"byteOffset":79448
		},
		{
			"buffer":0,
			"byteLength":24,
			"byteOffset":79472
		},
		{
			"buffer":0,
			"byteLength":32,
			"byteOffset":79496
		},
		{
			"buffer":0,
			"byteLength":24,
			"byteOffset":79528
		},
		{
			"buffer":0,
			"byteLength":8,
			"byteOffset":79552
		},
		{
			"buffer":0,
			"byteLength":24,
			"byteOffset":79560
		},
		{
			"buffer":0,
			"byteLength":32,
			"byteOffset":79584
		},
		{
			"buffer":0,
			"byteLength":24,
			"byteOffset":79616
		}
	],
	"buffers":[
		{
			"byteLength":79640,
			"uri":"book17.bin"
		}
	]
}
