{
	"asset":{
		"generator":"Khronos glTF Blender I/O v4.4.56",
		"version":"2.0"
	},
	"extensionsUsed":[
		"KHR_materials_specular"
	],
	"scene":0,
	"scenes":[
		{
			"name":"Scene",
			"nodes":[
				3
			]
		}
	],
	"nodes":[
		{
			"name":"Bone.001",
			"rotation":[
				0.5574192404747009,
				-5.82388622660801e-07,
				0.2833518981933594,
				0.7803816199302673
			],
			"scale":[
				1,
				0.9999998807907104,
				0.9999998807907104
			],
			"translation":[
				-1.4901161193847656e-08,
				0.9999999403953552,
				-5.960464477539063e-08
			]
		},
		{
			"children":[
				0
			],
			"name":"Bone",
			"rotation":[
				7.1013350755322335e-09,
				1.862645371275562e-09,
				0,
				1
			],
			"scale":[
				1,
				1,
				0.9999999403953552
			],
			"translation":[
				0.0028025321662425995,
				-0.7513812184333801,
				-0.005513429641723633
			]
		},
		{
			"mesh":0,
			"name":"book",
			"skin":0
		},
		{
			"children":[
				2,
				1
			],
			"name":"Armature",
			"rotation":[
				0.4262629449367523,
				-0.08405234664678574,
				-0.05519085004925728,
				0.8989933729171753
			],
			"scale":[
				0.09370613098144531,
				0.09370613843202591,
				0.09370612353086472
			],
			"translation":[
				-0.10269755870103836,
				0.136272594332695,
				0.09249502420425415
			]
		}
	],
	"animations":[
		{
			"channels":[
				{
					"sampler":0,
					"target":{
						"node":1,
						"path":"translation"
					}
				},
				{
					"sampler":1,
					"target":{
						"node":1,
						"path":"rotation"
					}
				},
				{
					"sampler":2,
					"target":{
						"node":1,
						"path":"scale"
					}
				},
				{
					"sampler":3,
					"target":{
						"node":0,
						"path":"translation"
					}
				},
				{
					"sampler":4,
					"target":{
						"node":0,
						"path":"rotation"
					}
				},
				{
					"sampler":5,
					"target":{
						"node":0,
						"path":"scale"
					}
				}
			],
			"name":"run",
			"samplers":[
				{
					"input":8,
					"interpolation":"STEP",
					"output":9
				},
				{
					"input":10,
					"interpolation":"LINEAR",
					"output":11
				},
				{
					"input":8,
					"interpolation":"STEP",
					"output":12
				},
				{
					"input":8,
					"interpolation":"LINEAR",
					"output":13
				},
				{
					"input":8,
					"interpolation":"LINEAR",
					"output":14
				},
				{
					"input":8,
					"interpolation":"STEP",
					"output":15
				}
			]
		}
	],
	"materials":[
		{
			"doubleSided":true,
			"extensions":{
				"KHR_materials_specular":{
					"specularFactor":0
				}
			},
			"name":"mia_material_x2SG",
			"pbrMetallicRoughness":{
				"baseColorFactor":[
					0.800000011920929,
					0.800000011920929,
					0.800000011920929,
					1
				],
				"metallicFactor":0
			}
		}
	],
	"meshes":[
		{
			"name":"book",
			"primitives":[
				{
					"attributes":{
						"POSITION":0,
						"NORMAL":1,
						"TEXCOORD_0":2,
						"TANGENT":3,
						"JOINTS_0":4,
						"WEIGHTS_0":5
					},
					"indices":6,
					"material":0
				}
			]
		}
	],
	"skins":[
		{
			"inverseBindMatrices":7,
			"joints":[
				1,
				0
			],
			"name":"Armature"
		}
	],
	"accessors":[
		{
			"bufferView":0,
			"componentType":5126,
			"count":486,
			"max":[
				-0.004980310332030058,
				0.18465860188007355,
				0.1443735659122467
			],
			"min":[
				-0.18768663704395294,
				0.07510962337255478,
				0.013192667625844479
			],
			"type":"VEC3"
		},
		{
			"bufferView":1,
			"componentType":5126,
			"count":486,
			"type":"VEC3"
		},
		{
			"bufferView":2,
			"componentType":5126,
			"count":486,
			"type":"VEC2"
		},
		{
			"bufferView":3,
			"componentType":5126,
			"count":486,
			"type":"VEC4"
		},
		{
			"bufferView":4,
			"componentType":5121,
			"count":486,
			"type":"VEC4"
		},
		{
			"bufferView":5,
			"componentType":5126,
			"count":486,
			"type":"VEC4"
		},
		{
			"bufferView":6,
			"componentType":5123,
			"count":1692,
			"type":"SCALAR"
		},
		{
			"bufferView":7,
			"componentType":5126,
			"count":2,
			"type":"MAT4"
		},
		{
			"bufferView":8,
			"componentType":5126,
			"count":2,
			"max":[
				1.625
			],
			"min":[
				0.041666666666666664
			],
			"type":"SCALAR"
		},
		{
			"bufferView":9,
			"componentType":5126,
			"count":2,
			"type":"VEC3"
		},
		{
			"bufferView":10,
			"componentType":5126,
			"count":39,
			"max":[
				1.625
			],
			"min":[
				0.041666666666666664
			],
			"type":"SCALAR"
		},
		{
			"bufferView":11,
			"componentType":5126,
			"count":39,
			"type":"VEC4"
		},
		{
			"bufferView":12,
			"componentType":5126,
			"count":2,
			"type":"VEC3"
		},
		{
			"bufferView":13,
			"componentType":5126,
			"count":2,
			"type":"VEC3"
		},
		{
			"bufferView":14,
			"componentType":5126,
			"count":2,
			"type":"VEC4"
		},
		{
			"bufferView":15,
			"componentType":5126,
			"count":2,
			"type":"VEC3"
		}
	],
	"bufferViews":[
		{
			"buffer":0,
			"byteLength":5832,
			"byteOffset":0,
			"target":34962
		},
		{
			"buffer":0,
			"byteLength":5832,
			"byteOffset":5832,
			"target":34962
		},
		{
			"buffer":0,
			"byteLength":3888,
			"byteOffset":11664,
			"target":34962
		},
		{
			"buffer":0,
			"byteLength":7776,
			"byteOffset":15552,
			"target":34962
		},
		{
			"buffer":0,
			"byteLength":1944,
			"byteOffset":23328,
			"target":34962
		},
		{
			"buffer":0,
			"byteLength":7776,
			"byteOffset":25272,
			"target":34962
		},
		{
			"buffer":0,
			"byteLength":3384,
			"byteOffset":33048,
			"target":34963
		},
		{
			"buffer":0,
			"byteLength":128,
			"byteOffset":36432
		},
		{
			"buffer":0,
			"byteLength":8,
			"byteOffset":36560
		},
		{
			"buffer":0,
			"byteLength":24,
			"byteOffset":36568
		},
		{
			"buffer":0,
			"byteLength":156,
			"byteOffset":36592
		},
		{
			"buffer":0,
			"byteLength":624,
			"byteOffset":36748
		},
		{
			"buffer":0,
			"byteLength":24,
			"byteOffset":37372
		},
		{
			"buffer":0,
			"byteLength":24,
			"byteOffset":37396
		},
		{
			"buffer":0,
			"byteLength":32,
			"byteOffset":37420
		},
		{
			"buffer":0,
			"byteLength":24,
			"byteOffset":37452
		}
	],
	"buffers":[
		{
			"byteLength":37476,
			"uri":"book13.bin"
		}
	]
}
