{
	"asset":{
		"generator":"Khronos glTF Blender I/O v4.4.56",
		"version":"2.0"
	},
	"extensionsUsed":[
		"KHR_materials_specular"
	],
	"scene":0,
	"scenes":[
		{
			"name":"Scene",
			"nodes":[
				0
			]
		}
	],
	"nodes":[
		{
			"mesh":0,
			"name":"book",
			"rotation":[
				0.7071068286895752,
				0,
				0,
				0.7071068286895752
			]
		}
	],
	"materials":[
		{
			"doubleSided":true,
			"extensions":{
				"KHR_materials_specular":{
					"specularFactor":0
				}
			},
			"name":"mia_material_x2SG",
			"pbrMetallicRoughness":{
				"baseColorFactor":[
					0.800000011920929,
					0.800000011920929,
					0.800000011920929,
					1
				],
				"metallicFactor":0
			}
		}
	],
	"meshes":[
		{
			"name":"book",
			"primitives":[
				{
					"attributes":{
						"POSITION":0,
						"NORMAL":1,
						"TEXCOORD_0":2
					},
					"indices":3,
					"material":0
				}
			]
		}
	],
	"accessors":[
		{
			"bufferView":0,
			"componentType":5126,
			"count":482,
			"max":[
				-0.0032160000409930944,
				0.18992799520492554,
				-0.11774899810552597
			],
			"min":[
				-0.19415999948978424,
				0.05470399931073189,
				-0.21776199340820312
			],
			"type":"VEC3"
		},
		{
			"bufferView":1,
			"componentType":5126,
			"count":482,
			"type":"VEC3"
		},
		{
			"bufferView":2,
			"componentType":5126,
			"count":482,
			"type":"VEC2"
		},
		{
			"bufferView":3,
			"componentType":5123,
			"count":1692,
			"type":"SCALAR"
		}
	],
	"bufferViews":[
		{
			"buffer":0,
			"byteLength":5784,
			"byteOffset":0,
			"target":34962
		},
		{
			"buffer":0,
			"byteLength":5784,
			"byteOffset":5784,
			"target":34962
		},
		{
			"buffer":0,
			"byteLength":3856,
			"byteOffset":11568,
			"target":34962
		},
		{
			"buffer":0,
			"byteLength":3384,
			"byteOffset":15424,
			"target":34963
		}
	],
	"buffers":[
		{
			"byteLength":18808,
			"uri":"book5.bin"
		}
	]
}
