{
	"asset":{
		"generator":"Khronos glTF Blender I/O v4.4.56",
		"version":"2.0"
	},
	"scene":0,
	"scenes":[
		{
			"name":"Scene",
			"nodes":[
				2,
				3
			]
		}
	],
	"nodes":[
		{
			"name":"Bone",
			"rotation":[
				-1.3969838619232178e-08,
				1.1175871783564162e-08,
				-2.468005000366702e-08,
				1
			],
			"scale":[
				0.9999999403953552,
				1,
				1
			],
			"translation":[
				1.4901161193847656e-08,
				5.587935447692871e-09,
				-2.2351741790771484e-08
			]
		},
		{
			"mesh":0,
			"name":"Plane",
			"skin":0
		},
		{
			"children":[
				1,
				0
			],
			"name":"Armature",
			"rotation":[
				0.43109822273254395,
				0.27822476625442505,
				0.12429822981357574,
				0.8492910265922546
			],
			"scale":[
				0.5480203628540039,
				0.5480203032493591,
				0.5480203628540039
			],
			"translation":[
				-0.09952136874198914,
				0.16321900486946106,
				0.11853121221065521
			]
		},
		{
			"mesh":1,
			"name":"book",
			"rotation":[
				0.70710688829422,
				0,
				0,
				0.7071066498756409
			]
		}
	],
	"animations":[
		{
			"channels":[
				{
					"sampler":0,
					"target":{
						"node":0,
						"path":"translation"
					}
				},
				{
					"sampler":1,
					"target":{
						"node":0,
						"path":"rotation"
					}
				},
				{
					"sampler":2,
					"target":{
						"node":0,
						"path":"scale"
					}
				}
			],
			"name":"ArmatureAction",
			"samplers":[
				{
					"input":13,
					"interpolation":"STEP",
					"output":14
				},
				{
					"input":15,
					"interpolation":"LINEAR",
					"output":16
				},
				{
					"input":13,
					"interpolation":"LINEAR",
					"output":17
				}
			]
		},
		{
			"channels":[
				{
					"sampler":0,
					"target":{
						"node":0,
						"path":"translation"
					}
				},
				{
					"sampler":1,
					"target":{
						"node":0,
						"path":"rotation"
					}
				},
				{
					"sampler":2,
					"target":{
						"node":0,
						"path":"scale"
					}
				}
			],
			"name":"main.002",
			"samplers":[
				{
					"input":18,
					"interpolation":"STEP",
					"output":19
				},
				{
					"input":20,
					"interpolation":"LINEAR",
					"output":21
				},
				{
					"input":18,
					"interpolation":"LINEAR",
					"output":22
				}
			]
		}
	],
	"materials":[
		{
			"doubleSided":true,
			"name":"Material.001",
			"pbrMetallicRoughness":{
				"baseColorTexture":{
					"index":0
				},
				"metallicFactor":0,
				"roughnessFactor":0.5
			}
		}
	],
	"meshes":[
		{
			"name":"Plane",
			"primitives":[
				{
					"attributes":{
						"POSITION":0,
						"NORMAL":1,
						"TEXCOORD_0":2,
						"TANGENT":3,
						"JOINTS_0":4,
						"WEIGHTS_0":5
					},
					"indices":6
				}
			]
		},
		{
			"name":"book",
			"primitives":[
				{
					"attributes":{
						"POSITION":8,
						"NORMAL":9,
						"TEXCOORD_0":10,
						"TANGENT":11
					},
					"indices":12,
					"material":0
				}
			]
		}
	],
	"textures":[
		{
			"sampler":0,
			"source":0
		}
	],
	"images":[
		{
			"mimeType":"image/jpeg",
			"name":"Material",
			"uri":"Material.jpg"
		},
		{
			"mimeType":"image/png",
			"name":"459110468_122174906030137800_9129798431508819082_n",
			"uri":"459110468_122174906030137800_9129798431508819082_n.png"
		},
		{
			"mimeType":"image/png",
			"name":"Untitled",
			"uri":"Untitled.png"
		},
		{
			"mimeType":"image/png",
			"name":"Untitled",
			"uri":"Untitled-1.png"
		}
	],
	"skins":[
		{
			"inverseBindMatrices":7,
			"joints":[
				0
			],
			"name":"Armature"
		}
	],
	"accessors":[
		{
			"bufferView":0,
			"componentType":5126,
			"count":2484,
			"max":[
				-0.042398057878017426,
				0.2572075128555298,
				0.17619366943836212
			],
			"min":[
				-0.10589887201786041,
				0.126544788479805,
				0.028697175905108452
			],
			"type":"VEC3"
		},
		{
			"bufferView":1,
			"componentType":5126,
			"count":2484,
			"type":"VEC3"
		},
		{
			"bufferView":2,
			"componentType":5126,
			"count":2484,
			"type":"VEC2"
		},
		{
			"bufferView":3,
			"componentType":5126,
			"count":2484,
			"type":"VEC4"
		},
		{
			"bufferView":4,
			"componentType":5121,
			"count":2484,
			"type":"VEC4"
		},
		{
			"bufferView":5,
			"componentType":5126,
			"count":2484,
			"type":"VEC4"
		},
		{
			"bufferView":6,
			"componentType":5123,
			"count":6534,
			"type":"SCALAR"
		},
		{
			"bufferView":7,
			"componentType":5126,
			"count":1,
			"type":"MAT4"
		},
		{
			"bufferView":8,
			"componentType":5126,
			"count":703,
			"max":[
				-0.0032160000409930944,
				0.18992799520492554,
				-0.11774899810552597
			],
			"min":[
				-0.19415999948978424,
				0.05470399931073189,
				-0.21776199340820312
			],
			"type":"VEC3"
		},
		{
			"bufferView":9,
			"componentType":5126,
			"count":703,
			"type":"VEC3"
		},
		{
			"bufferView":10,
			"componentType":5126,
			"count":703,
			"type":"VEC2"
		},
		{
			"bufferView":11,
			"componentType":5126,
			"count":703,
			"type":"VEC4"
		},
		{
			"bufferView":12,
			"componentType":5123,
			"count":1692,
			"type":"SCALAR"
		},
		{
			"bufferView":13,
			"componentType":5126,
			"count":2,
			"max":[
				3.3333333333333335
			],
			"min":[
				0.041666666666666664
			],
			"type":"SCALAR"
		},
		{
			"bufferView":14,
			"componentType":5126,
			"count":2,
			"type":"VEC3"
		},
		{
			"bufferView":15,
			"componentType":5126,
			"count":80,
			"max":[
				3.3333333333333335
			],
			"min":[
				0.041666666666666664
			],
			"type":"SCALAR"
		},
		{
			"bufferView":16,
			"componentType":5126,
			"count":80,
			"type":"VEC4"
		},
		{
			"bufferView":17,
			"componentType":5126,
			"count":2,
			"type":"VEC3"
		},
		{
			"bufferView":18,
			"componentType":5126,
			"count":2,
			"max":[
				1.6666666666666667
			],
			"min":[
				0.041666666666666664
			],
			"type":"SCALAR"
		},
		{
			"bufferView":19,
			"componentType":5126,
			"count":2,
			"type":"VEC3"
		},
		{
			"bufferView":20,
			"componentType":5126,
			"count":40,
			"max":[
				1.6666666666666667
			],
			"min":[
				0.041666666666666664
			],
			"type":"SCALAR"
		},
		{
			"bufferView":21,
			"componentType":5126,
			"count":40,
			"type":"VEC4"
		},
		{
			"bufferView":22,
			"componentType":5126,
			"count":2,
			"type":"VEC3"
		}
	],
	"bufferViews":[
		{
			"buffer":0,
			"byteLength":29808,
			"byteOffset":0,
			"target":34962
		},
		{
			"buffer":0,
			"byteLength":29808,
			"byteOffset":29808,
			"target":34962
		},
		{
			"buffer":0,
			"byteLength":19872,
			"byteOffset":59616,
			"target":34962
		},
		{
			"buffer":0,
			"byteLength":39744,
			"byteOffset":79488,
			"target":34962
		},
		{
			"buffer":0,
			"byteLength":9936,
			"byteOffset":119232,
			"target":34962
		},
		{
			"buffer":0,
			"byteLength":39744,
			"byteOffset":129168,
			"target":34962
		},
		{
			"buffer":0,
			"byteLength":13068,
			"byteOffset":168912,
			"target":34963
		},
		{
			"buffer":0,
			"byteLength":64,
			"byteOffset":181980
		},
		{
			"buffer":0,
			"byteLength":8436,
			"byteOffset":182044,
			"target":34962
		},
		{
			"buffer":0,
			"byteLength":8436,
			"byteOffset":190480,
			"target":34962
		},
		{
			"buffer":0,
			"byteLength":5624,
			"byteOffset":198916,
			"target":34962
		},
		{
			"buffer":0,
			"byteLength":11248,
			"byteOffset":204540,
			"target":34962
		},
		{
			"buffer":0,
			"byteLength":3384,
			"byteOffset":215788,
			"target":34963
		},
		{
			"buffer":0,
			"byteLength":8,
			"byteOffset":219172
		},
		{
			"buffer":0,
			"byteLength":24,
			"byteOffset":219180
		},
		{
			"buffer":0,
			"byteLength":320,
			"byteOffset":219204
		},
		{
			"buffer":0,
			"byteLength":1280,
			"byteOffset":219524
		},
		{
			"buffer":0,
			"byteLength":24,
			"byteOffset":220804
		},
		{
			"buffer":0,
			"byteLength":8,
			"byteOffset":220828
		},
		{
			"buffer":0,
			"byteLength":24,
			"byteOffset":220836
		},
		{
			"buffer":0,
			"byteLength":160,
			"byteOffset":220860
		},
		{
			"buffer":0,
			"byteLength":640,
			"byteOffset":221020
		},
		{
			"buffer":0,
			"byteLength":24,
			"byteOffset":221660
		}
	],
	"samplers":[
		{
			"magFilter":9729,
			"minFilter":9987
		}
	],
	"buffers":[
		{
			"byteLength":221684,
			"uri":"Untitled7.bin"
		}
	]
}
